<svg width="1261" height="204" viewBox="0 0 1261 204" fill="none" xmlns="http://www.w3.org/2000/svg">
<path d="M285.61 157.48H182.73C181.63 157.48 180.73 156.58 180.73 155.48V10.98C180.73 9.88 181.63 8.98 182.73 8.98H285.61C286.71 8.98 287.61 9.88 287.61 10.98V31.18C287.61 32.28 286.71 33.18 285.61 33.18H210.78C209.68 33.18 208.78 34.08 208.78 35.18V66.75C208.78 67.85 209.68 68.75 210.78 68.75H280.11C281.21 68.75 282.11 69.65 282.11 70.75V90.22C282.11 91.32 281.21 92.22 280.11 92.22H210.78C209.68 92.22 208.78 93.12 208.78 94.22V131.29C208.78 132.39 209.68 133.29 210.78 133.29H285.61C286.71 133.29 287.61 134.19 287.61 135.29V155.49C287.61 156.59 286.71 157.49 285.61 157.49V157.48Z" fill="#1EADCB"/>
<path d="M345.95 159.68C330.06 159.68 317.53 156.35 308.37 149.69C299.78 143.45 294.9 134.88 293.71 123.97C293.58 122.78 294.5 121.73 295.7 121.73H318.44C319.37 121.73 320.19 122.38 320.38 123.29C321.45 128.25 323.99 131.98 327.98 134.47C332.38 137.22 338.73 138.59 347.05 138.59C361.1 138.59 368.13 134.5 368.13 126.31C368.13 123.01 367.06 120.44 364.92 118.61C362.78 116.78 359.21 115.37 354.19 114.39L329.99 109.81C308.48 105.66 297.72 95.51 297.72 79.38C297.72 68.99 301.81 60.71 310 54.54C318.19 48.37 329.49 45.28 343.92 45.28C358.35 45.28 369.8 48.43 378.3 54.72C386.22 60.59 390.88 68.73 392.26 79.11C392.42 80.31 391.49 81.39 390.27 81.39H367.63C366.76 81.39 365.97 80.83 365.73 80C364.31 75.21 361.9 71.67 358.5 69.38C354.77 66.88 349.42 65.62 342.46 65.62C336.23 65.62 331.46 66.6 328.16 68.55C324.86 70.51 323.21 73.38 323.21 77.17C323.21 79.98 324.25 82.24 326.33 83.95C328.41 85.66 331.71 86.95 336.23 87.8L360.98 92.57C372.22 94.77 380.47 98.44 385.73 103.57C390.98 108.7 393.61 115.61 393.61 124.29C393.61 135.41 389.51 144.09 381.33 150.32C373.14 156.55 361.35 159.67 345.95 159.67V159.68Z" fill="#1EADCB"/>
<path d="M436.51 157.48C429.3 157.48 423.71 155.65 419.74 151.98C415.77 148.31 413.78 142.75 413.78 135.3V70.75C413.78 69.65 412.88 68.75 411.78 68.75H396.35C395.25 68.75 394.35 67.85 394.35 66.75V49.48C394.35 48.38 395.25 47.48 396.35 47.48H411.97C413.07 47.48 413.97 46.58 413.97 45.48V16.48C413.97 15.38 414.87 14.48 415.97 14.48H438.74C439.84 14.48 440.74 15.38 440.74 16.48V45.48C440.74 46.58 441.64 47.48 442.74 47.48H465.32C466.42 47.48 467.32 48.38 467.32 49.48V66.75C467.32 67.85 466.42 68.75 465.32 68.75H443.1C442 68.75 441.1 69.65 441.1 70.75V134.03C441.1 135.13 442 136.03 443.1 136.03H467.88C468.98 136.03 469.88 136.93 469.88 138.03V155.48C469.88 156.58 468.98 157.48 467.88 157.48H436.51Z" fill="#1EADCB"/>
<path d="M486.16 155.48V76.8C486.16 75.7 485.26 74.8 484.16 74.8H474.59C473.49 74.8 472.59 73.9 472.59 72.8V49.48C472.59 48.38 473.49 47.48 474.59 47.48H498.46C499.56 47.48 500.46 48.38 500.46 49.48V66.75C500.46 67.85 501.36 68.75 502.46 68.75H506.86C507.65 68.75 508.36 68.27 508.69 67.55C511.75 60.81 516.28 55.65 522.29 52.07C528.64 48.28 535.92 46.39 544.11 46.39H551.28C552.38 46.39 553.28 47.29 553.28 48.39V67.86C553.28 68.96 552.38 69.86 551.28 69.86H542.83C532.93 69.86 525.5 72.73 520.56 78.48C515.61 84.23 513.14 91.86 513.14 101.4V155.5C513.14 156.6 512.24 157.5 511.14 157.5H488.19C487.09 157.5 486.19 156.6 486.19 155.5L486.16 155.48Z" fill="#1EADCB"/>
<path d="M595.71 159.5C582.88 159.5 572.82 156.38 565.55 150.15C558.28 143.92 554.64 135.67 554.64 125.4C554.64 115.13 558.34 106.33 565.73 100.47C573.12 94.6 583.79 91.67 597.72 91.67H629.27C630.37 91.67 631.27 90.77 631.27 89.67V87.27C631.27 73.83 623.45 67.1 607.8 67.1C595.2 67.1 587.34 71.44 584.2 80.12C583.92 80.9 583.16 81.4 582.34 81.4H558.94C557.65 81.4 556.69 80.19 556.99 78.93C559.47 68.4 564.83 60.27 573.06 54.54C581.92 48.37 593.5 45.28 607.8 45.28C623.93 45.28 636.22 48.92 644.65 56.19C653.08 63.46 657.3 74.07 657.3 88V128.17C657.3 129.27 658.2 130.17 659.3 130.17H668.32C669.42 130.17 670.32 131.07 670.32 132.17V155.49C670.32 156.59 669.42 157.49 668.32 157.49H644.27C643.17 157.49 642.27 156.59 642.27 155.49V141.89C642.27 140.79 641.37 139.89 640.27 139.89H635.67C634.98 139.89 634.36 140.25 633.98 140.82C630.26 146.6 625.35 151.12 619.26 154.37C612.84 157.79 604.99 159.5 595.7 159.5H595.71ZM599.74 138.41C605.73 138.41 611.11 137.28 615.87 135.02C620.64 132.76 624.4 129.7 627.15 125.85C629.9 122 631.27 117.69 631.27 112.93V112.36C631.27 111.26 630.37 110.36 629.27 110.36H599.19C586.84 110.36 580.67 114.94 580.67 124.11C580.67 128.63 582.35 132.15 585.71 134.65C589.07 137.16 593.75 138.41 599.74 138.41Z" fill="#1EADCB"/>
<path d="M707.61 157.48C700.4 157.48 694.81 155.65 690.83 151.98C686.86 148.31 684.87 142.75 684.87 135.3V70.75C684.87 69.65 683.97 68.75 682.87 68.75H667.44C666.34 68.75 665.44 67.85 665.44 66.75V49.48C665.44 48.38 666.34 47.48 667.44 47.48H683.06C684.16 47.48 685.06 46.58 685.06 45.48V16.48C685.06 15.38 685.96 14.48 687.06 14.48H709.83C710.93 14.48 711.83 15.38 711.83 16.48V45.48C711.83 46.58 712.73 47.48 713.83 47.48H736.41C737.51 47.48 738.41 48.38 738.41 49.48V66.75C738.41 67.85 737.51 68.75 736.41 68.75H714.19C713.09 68.75 712.19 69.65 712.19 70.75V134.03C712.19 135.13 713.09 136.03 714.19 136.03H738.97C740.07 136.03 740.97 136.93 740.97 138.03V155.48C740.97 156.58 740.07 157.48 738.97 157.48H707.6H707.61Z" fill="#1EADCB"/>
<path d="M798.41 159.68C786.55 159.68 776.29 157.33 767.61 152.62C758.93 147.92 752.24 141.25 747.53 132.64C742.82 124.02 740.47 113.85 740.47 102.11C740.47 90.37 742.79 80.27 747.44 71.77C752.08 63.28 758.68 56.74 767.24 52.15C775.79 47.57 785.82 45.27 797.31 45.27C808.8 45.27 818.21 47.44 826.28 51.78C834.35 56.12 840.58 62.35 844.98 70.48C849.38 78.61 851.58 88.23 851.58 99.36V106.89C851.58 107.99 850.68 108.89 849.58 108.89H769.16C767.93 108.89 766.99 109.99 767.18 111.21C768.42 119.38 771.53 125.72 776.51 130.25C781.95 135.2 789.19 137.68 798.23 137.68C804.95 137.68 810.42 136.43 814.64 133.92C818.51 131.62 821.32 128.28 823.08 123.87C823.38 123.12 824.13 122.64 824.95 122.64H848.48C849.8 122.64 850.76 123.91 850.41 125.18C847.58 135.58 841.89 143.81 833.34 149.86C824.11 156.4 812.47 159.67 798.42 159.67L798.41 159.68ZM770.03 90.38H822.97C824.24 90.38 825.19 89.21 824.94 87.97C823.6 81.57 820.81 76.6 816.56 73.06C811.79 69.09 805.38 67.1 797.31 67.1C789.24 67.1 782.83 69.12 777.69 73.15C773.16 76.71 769.97 81.6 768.1 87.82C767.72 89.1 768.69 90.39 770.03 90.39V90.38ZM780.08 33.55V32.82L799.3 0.969986C799.66 0.369986 800.31 0 801.01 0H829.58V0.729996L801.39 32.87C801.01 33.3 800.46 33.55 799.89 33.55H780.08Z" fill="#1EADCB"/>
<path d="M913.49 203.68C897.36 203.68 884.25 200.38 874.16 193.78C864.79 187.65 858.98 179.35 856.74 168.89C856.47 167.64 857.43 166.46 858.7 166.46H883.64C884.47 166.46 885.22 166.97 885.5 167.74C888.93 177.03 897.95 181.67 912.57 181.67C922.71 181.67 930.51 179.31 935.95 174.61C941.39 169.9 944.11 163.21 944.11 154.53V138.76H943.19C940.01 144.87 935.43 149.52 929.44 152.69C923.45 155.87 916.3 157.46 907.99 157.46C897.72 157.46 888.74 155.17 881.04 150.58C873.34 146 867.41 139.49 863.26 131.05C859.1 122.62 857.03 112.72 857.03 101.35C857.03 84.24 861.7 70.61 871.05 60.47C880.4 50.33 893.33 45.25 909.83 45.25C918.87 45.25 926.63 46.96 933.11 50.38C939.27 53.64 944.27 58.22 948.11 64.12C948.48 64.69 949.11 65.05 949.79 65.05H954.4C955.5 65.05 956.4 64.15 956.4 63.05V49.45C956.4 48.35 957.3 47.45 958.4 47.45H982.45C983.55 47.45 984.45 48.35 984.45 49.45V72.77C984.45 73.87 983.55 74.77 982.45 74.77H972.7C971.6 74.77 970.7 75.67 970.7 76.77V154.89C970.7 170.41 965.75 182.42 955.85 190.92C945.95 199.41 931.83 203.66 913.5 203.66L913.49 203.68ZM914.77 133.65C923.57 133.65 930.54 131.18 935.67 126.23C940.8 121.28 943.37 114.59 943.37 106.15V96.25C943.37 87.94 940.77 81.34 935.58 76.45C930.38 71.56 923.45 69.12 914.77 69.12C905.11 69.12 897.63 71.96 892.31 77.65C886.99 83.33 884.34 91.31 884.34 101.57C884.34 111.83 887 119.75 892.31 125.31C897.63 130.87 905.11 133.65 914.77 133.65Z" fill="#1EADCB"/>
<path d="M1007.6 35.38C1003.32 35.38 999.68 33.88 996.69 30.89C993.69 27.9 992.2 24.26 992.2 19.98C992.2 15.7 993.7 12.07 996.69 9.06999C999.68 6.07999 1003.32 4.57999 1007.6 4.57999C1011.88 4.57999 1015.51 6.07999 1018.51 9.06999C1021.5 12.07 1023 15.7 1023 19.98C1023 24.26 1021.5 27.9 1018.51 30.89C1015.51 33.89 1011.88 35.38 1007.6 35.38ZM994.03 155.48V49.48C994.03 48.38 994.93 47.48 996.03 47.48H1019.35C1020.45 47.48 1021.35 48.38 1021.35 49.48V155.48C1021.35 156.58 1020.45 157.48 1019.35 157.48H996.03C994.93 157.48 994.03 156.58 994.03 155.48Z" fill="#1EADCB"/>
<path d="M1089.06 159.68C1077.69 159.68 1067.73 157.33 1059.18 152.62C1050.62 147.92 1043.96 141.29 1039.2 132.73C1034.43 124.18 1032.05 114.09 1032.05 102.48C1032.05 90.87 1034.4 80.79 1039.11 72.23C1043.81 63.68 1050.44 57.04 1059 52.34C1067.55 47.64 1077.58 45.28 1089.07 45.28C1103.25 45.28 1114.98 48.86 1124.27 56C1132.95 62.68 1138.64 71.79 1141.34 83.32C1141.64 84.58 1140.68 85.79 1139.39 85.79H1115.96C1115.12 85.79 1114.38 85.25 1114.08 84.47C1112.21 79.62 1109.32 75.91 1105.39 73.33C1101.11 70.52 1095.67 69.11 1089.07 69.11C1080.02 69.11 1072.81 72.02 1067.44 77.82C1062.06 83.63 1059.37 91.84 1059.37 102.48C1059.37 113.12 1062.06 121.33 1067.44 127.14C1072.82 132.95 1080.03 135.85 1089.07 135.85C1102.7 135.85 1111.25 130.2 1114.71 118.9C1114.96 118.07 1115.74 117.52 1116.61 117.52H1140.17C1141.45 117.52 1142.39 118.7 1142.13 119.96C1139.55 132.12 1133.9 141.66 1125.18 148.6C1115.89 156 1103.85 159.69 1089.06 159.69V159.68Z" fill="#1EADCB"/>
<path d="M1185.95 159.5C1173.12 159.5 1163.06 156.38 1155.79 150.15C1148.52 143.92 1144.88 135.67 1144.88 125.4C1144.88 115.13 1148.58 106.33 1155.97 100.47C1163.36 94.6 1174.03 91.67 1187.96 91.67H1219.51C1220.61 91.67 1221.51 90.77 1221.51 89.67V87.27C1221.51 73.83 1213.69 67.1 1198.04 67.1C1185.44 67.1 1177.58 71.44 1174.44 80.12C1174.16 80.9 1173.4 81.4 1172.58 81.4H1149.18C1147.89 81.4 1146.93 80.19 1147.23 78.93C1149.71 68.4 1155.07 60.27 1163.3 54.54C1172.16 48.37 1183.74 45.28 1198.04 45.28C1214.17 45.28 1226.46 48.92 1234.89 56.19C1243.32 63.46 1247.54 74.07 1247.54 88V128.17C1247.54 129.27 1248.44 130.17 1249.54 130.17H1258.56C1259.66 130.17 1260.56 131.07 1260.56 132.17V155.49C1260.56 156.59 1259.66 157.49 1258.56 157.49H1234.51C1233.41 157.49 1232.51 156.59 1232.51 155.49V141.89C1232.51 140.79 1231.61 139.89 1230.51 139.89H1225.91C1225.22 139.89 1224.6 140.25 1224.22 140.82C1220.5 146.6 1215.59 151.12 1209.5 154.37C1203.08 157.79 1195.23 159.5 1185.94 159.5H1185.95ZM1189.98 138.41C1195.97 138.41 1201.35 137.28 1206.11 135.02C1210.88 132.76 1214.64 129.7 1217.39 125.85C1220.14 122 1221.51 117.69 1221.51 112.93V112.36C1221.51 111.26 1220.61 110.36 1219.51 110.36H1189.43C1177.08 110.36 1170.91 114.94 1170.91 124.11C1170.91 128.63 1172.59 132.15 1175.95 134.65C1179.31 137.16 1183.99 138.41 1189.98 138.41Z" fill="#1EADCB"/>
<path d="M53.39 59.22C52.07 59.22 50.7801 59.6 49.6801 60.31L3.12 90.41C1.17 91.67 0 93.83 0 96.15V138.91C0 142.68 3.06009 145.75 6.84009 145.75H17.8601L54.6101 59.22H53.39Z" fill="#1EADCB"/>
<path d="M130.56 97.76L110.84 51.63C109.76 49.11 107.29 47.48 104.55 47.48H64.1001C61.3601 47.48 58.8801 49.12 57.8101 51.64L54.5901 59.21H89.02C92.79 59.21 95.8601 62.27 95.8601 66.05V138.91C95.8601 142.68 92.8 145.75 89.02 145.75H17.8401L16.89 147.98C14.98 152.49 18.2801 157.49 23.1801 157.49H102.94C105.68 157.49 108.16 155.85 109.23 153.33L130.54 103.13C131.27 101.42 131.26 99.48 130.54 97.77L130.56 97.76Z" fill="#1EADCB"/>
</svg>
